# xmcd CD database file
#
# Track frame offsets:
#	150
#	18475
#	37837
#	58645
#	68931
#	83118
#	95788
#	106383
#	124418
#	141975
#	152621
#	167945
#	182234
#	191599
#
# Disc length: 2732 seconds
#
# Revision: 0
# Processed by: cddbd v1.5.2PL0 Copyright (c) Steve Scherf et al.
# Submitted via: CDex 1.51
#
DISCID=c60aaa0e
DTITLE=Wayne Hancock - Tulsa
DYEAR=2006
DGENRE=Country
TTITLE0=Tulsa
TTITLE1=Drinkin' Blues
TTITLE2=Highway Bound
TTITLE3=I Don't Care Anymore
TTITLE4=This Lonely Night
TTITLE5=Goin' Home Blues
TTITLE6=Shootin' Star From Texas
TTITLE7=Ain't Gonna Worry No More
TTITLE8=Gonna Be Flyin' Tonight
TTITLE9=No Sleep Blues
TTITLE10=Lord Take My Pain
TTITLE11=Back Home
TTITLE12=Brother Music, Sister Rhythm
TTITLE13=Goin' To Texas When I'm Through
EXTD=YEAR: 2006
EXTT0=
EXTT1=
EXTT2=
EXTT3=
EXTT4=
EXTT5=
EXTT6=
EXTT7=
EXTT8=
EXTT9=
EXTT10=
EXTT11=
EXTT12=
EXTT13=
PLAYORDER=
